# AST/ASF file generated using VICON BodyLanguage
# -----------------------------------------------
:version 1.10
:name VICON
:units
  mass 1.0
  length 0.45
  angle deg
:documentation
   .ast/.asf automatically generated from VICON data using
   VICON BodyBuilder and BodyLanguage model FoxedUp or BRILLIANT.MOD
:root
   order TX TY TZ RX RY RZ
   axis XYZ
   position 0 0 0  
   orientation 0 0 0 
:bonedata
  begin
     id 1 
     name lhipjoint
     direction 0.635376 -0.686425 0.353719 
     length 2.47244 
     axis 0 0 0  XYZ
  end
  begin
     id 2 
     name lfemur
     direction 0.34202 -0.939693 0  
     length 7.25268  
     axis 0 0 20  XYZ
    dof rx ry rz
    limits (-160.0 20.0)
           (-70.0 70.0)
           (-60.0 70.0)
  end
  begin
     id 3 
     name ltibia
     direction 0.34202 -0.939693 0   
     length 7.6767   
     axis 0 0 20   XYZ
    dof rx
    limits (-10.0 170.0)
  end
  begin
     id 4 
     name lfoot
     direction 0.0803374 -0.220725 0.972022   
     length 2.22945   
     axis -90 7.62852e-016 20   XYZ
    dof rx rz
    limits (-45.0 90.0)
           (-70.0 20.0)
  end
  begin
     id 5 
     name ltoes
     direction 1.53579e-011 -4.21994e-011 1   
     length 1.11848   
     axis -90 7.62852e-016 20   XYZ
    dof rx
    limits (-90.0 20.0)
  end
  begin
     id 6 
     name rhipjoint
     direction -0.664428 -0.664335 0.342336   
     length 2.55466  
     axis 0 0 0  XYZ 
  end
  begin
     id 7 
     name rfemur
     direction -0.34202 -0.939693 0   
     length 6.83172   
     axis 0 0 -20   XYZ
    dof rx ry rz
    limits (-160.0 20.0)
           (-70.0 70.0)
           (-70.0 60.0)
  end
  begin
     id 8 
     name rtibia
     direction -0.34202 -0.939693 0   
     length 7.62692   
     axis 0 0 -20   XYZ
    dof rx
    limits (-10.0 170.0)
 end
 begin
     id 9 
     name rfoot
     direction -0.0949276 -0.260811 0.960711   
     length 2.19684  
     axis -90 -7.62852e-016 -20   XYZ
    dof rx rz
    limits (-45.0 90.0)
           (-20.0 70.0)
  end
  begin
     id 10 
     name rtoes
     direction -1.53543e-011 -4.2183e-011 1   
     length 1.09848   
     axis -90 -7.62852e-016 -20   XYZ
    dof rx
    limits (-90.0 20.0)
  end
  begin
     id 11 
     name lowerback
     direction 0.0118782 0.999815 -0.0151555   
     length 2.15772   
     axis 0 0 0   XYZ
    dof rx ry rz
    limits (-20.0 45.0)
           (-30.0 30.0)
           (-30.0 30.0)
  end
  begin
     id 12 
     name upperback
     direction 0.00130825 0.999065 0.0432113   
     length 2.14863   
     axis 0 0 0   XYZ
    dof rx ry rz
    limits (-20.0 45.0)
           (-30.0 30.0)
           (-30.0 30.0)
  end
  begin
     id 13 
     name thorax
     direction -0.00347005 0.998773 0.0494011   
     length 2.14936   
     axis 0 0 0   XYZ
    dof rx ry rz
    limits (-20.0 45.0)
           (-30.0 30.0)
           (-30.0 30.0)
  end
  begin
     id 14 
     name lowerneck
     direction -0.0262159 0.99424 0.103921   
     length 1.69373   
     axis 0 0 0   XYZ
    dof rx ry rz
    limits (-20.0 45.0)
           (-30.0 30.0)
           (-30.0 30.0)
  end
  begin
     id 15 
     name upperneck
     direction 0.0353511 0.977394 -0.20845   
     length 1.70857   
     axis 0 0 0   XYZ
    dof rx ry rz
    limits (-20.0 45.0)
           (-30.0 30.0)
           (-30.0 30.0)
  end
  begin
     id 16
     name head
     direction 0.0139214 0.996594 -0.0812836  
     length 1.72777  
     axis 0 0 0   XYZ
    dof rx ry rz
    limits (-20.0 45.0)
           (-30.0 30.0)
           (-30.0 30.0)
  end
  begin
     id 17 
     name lclavicle
     direction 0.841247 0.537205 -0.0609508  
     length 3.55371  
     axis 0 0 0   XYZ
    dof ry rz
    limits (-20.0 10.0)
           (0.0 20.0)
  end
  begin
     id 18 
     name lhumerus
     direction 1 -4.48964e-011 1.60116e-018   
     length 4.91377   
     axis -180 -30 -90   XYZ
    dof rx ry rz
    limits (-60.0 90.0)
           (-90.0 90.0)
           (-90.0 90.0)
  end
  begin
     id 19
     name lradius
     direction 1 -4.48989e-011 -8.93847e-027   
     length 3.00291   
     axis -180 -30 -90   XYZ
    dof rx
    limits (-10.0 170.0)
  end
  begin
     id 20
     name lwrist
     direction 1 -4.48932e-011 -7.31504e-027   
     length 1.50145   
     axis 5.74121e-015 90 90   XYZ
    dof ry
    limits (-180.0 0.0)
 end
  begin
     id 21 
     name lhand
     direction 1 -4.48971e-011 -1.46301e-026   
     length 0.450922   
     axis 9.33524e-015 90 90   XYZ
    dof rx rz
    limits (-90.0 90.0)
           (-45.0 45.0)
  end
  begin
     id 22 
     name lfingers
     direction 1 -4.49039e-011 -2.92602e-026   
     length 0.363545   
     axis 1.86705e-014 90 90   XYZ
    dof rx
    limits (0.0 90.0)
  end
  begin
     id 23
     name lthumb
     direction 0.707107 -6.34941e-011 0.707107   
     length 0.52198   
     axis -90 45 2.85299e-015   XYZ
    dof rx rz
    limits (-45.0 45.0)
           (-45.0 45.0)
  end
  begin
     id 24 
     name rclavicle
     direction -0.825079 0.56158 -0.0622297   
     length 3.39909  
     axis 0 0 0   XYZ 
    dof ry rz
    limits (-10.0 20.0)
           (-20.0 0.0)
  end
  begin
     id 25 
     name rhumerus
     direction -1 -4.48965e-011 1.61691e-027  
     length 4.86725   
     axis -180 30 90   XYZ
    dof rx ry rz
    limits (-90.0 60.0)
           (-90.0 90.0)
           (-90.0 90.0)
  end
  begin
     id 26 
     name rradius
     direction -1 -4.48964e-011 -2.25776e-027   
     length 3.17144   
     axis -180 30 90   XYZ
    dof rx
    limits (-10.0 170.0)
  end
  begin
     id 27 
     name rwrist
     direction -1 -4.48961e-011 -7.31504e-027   
     length 1.58572   
     axis 5.74121e-015 -90 -90   XYZ
    dof ry
    limits (-180.0 0.0)
  end
  begin
     id 28
     name rhand
     direction -1 -4.49013e-011 -1.46301e-026   
     length 0.419368   
     axis 9.33524e-015 -90 -90   XYZ
    dof rx rz
    limits (-90.0 90.0)
           (-45.0 45.0)
  end
  begin
     id 29
     name rfingers
     direction -1 -4.489e-011 -2.92602e-026   
     length 0.338105   
     axis 1.86705e-014 -90 -90   XYZ
    dof rx
    limits (0.0 90.0)
  end
  begin
     id 30
     name rthumb
     direction -0.707107 -6.35022e-011 0.707107   
     length 0.485453   
     axis -90 -45 -2.85299e-015   XYZ
    dof rx rz
    limits (-45.0 45.0)
           (-45.0 45.0)
  end
:hierarchy
  begin
    root lhipjoint rhipjoint lowerback
    lhipjoint lfemur
    lfemur ltibia
    ltibia lfoot
    lfoot ltoes
    rhipjoint rfemur
    rfemur rtibia
    rtibia rfoot
    rfoot rtoes
    lowerback upperback
    upperback thorax
    thorax lowerneck lclavicle rclavicle
    lowerneck upperneck
    upperneck head
    lclavicle lhumerus
    lhumerus lradius
    lradius lwrist
    lwrist lhand lthumb
    lhand lfingers
    rclavicle rhumerus
    rhumerus rradius
    rradius rwrist
    rwrist rhand rthumb
    rhand rfingers
  end

#!OML:ASF H:\Swim 2\Project 1\Capture day 1\Session 1\male.ASF
:FULLY-SPECIFIED
:DEGREES
488
root 1.58755 13.5898 10.2923 99.0941 -1.75688 -1.1933
lowerback -23.5477 0.533666 -7.17927
upperback -7.15077 2.13768 5.24642
thorax 4.68741 1.18249 10.5638
lowerneck -20.2336 -3.14486 -5.69437
upperneck 37.199 -1.40704 -2.39696
head 17.0207 -1.6473 -0.32801
rclavicle -3.97569e-014 7.95139e-015
rhumerus 84.1517 -0.891574 -11.6808
rradius 32.995
rwrist -42.4198
rhand -30.9087 -7.59382
rfingers 7.12502
rthumb -4.19502 -37.5323
lclavicle -3.97569e-014 7.95139e-015
lhumerus 88.0835 -8.20546 67.374
lradius 18.8671
lwrist 17.1438
lhand -39.1558 -8.58533
lfingers 7.12502
lthumb -12.1539 21.0416
rfemur -47.9313 9.16548 6.5908
rtibia 32.1808
rfoot 23.4608 0.972271
rtoes 5.60971
lfemur -45.2831 -9.86739 -13.2406
ltibia 37.6272
lfoot 1.20279 19.7438
ltoes 4.7633
489
root 1.57994 13.569 10.2659 98.8325 -1.77167 -1.27017
lowerback -23.4662 0.574036 -7.2203
upperback -7.14188 2.19545 5.2803
thorax 4.63881 1.21492 10.6377
lowerneck -20.2352 -3.18435 -5.70186
upperneck 37.0607 -1.48094 -2.36276
head 16.9489 -1.67152 -0.323553
rclavicle 3.33958e-014 1.03368e-014
rhumerus 84.1206 -1.09177 -11.3794
rradius 33.0508
rwrist -42.3925
rhand -31.2498 -7.47843
rfingers 7.12502
rthumb -4.5244 -37.4101
lclavicle 3.33958e-014 1.03368e-014
lhumerus 88.2035 -8.16712 67.6705
lradius 18.7361
lwrist 16.4581
lhand -39.4139 -9.11338
lfingers 7.12502
lthumb -12.4027 20.4987
rfemur -48.3374 9.20723 6.71915
rtibia 32.4854
rfoot 23.1663 1.31982
rtoes 5.13861
lfemur -45.7114 -9.66335 -13.4101
ltibia 37.7674
lfoot 1.66345 18.8065
ltoes 3.0053
490
root 1.57241 13.548 10.2387 98.5708 -1.78603 -1.34723
lowerback -23.3858 0.620669 -7.28864
upperback -7.13333 2.26848 5.31723
thorax 4.58495 1.25589 10.7354
lowerneck -20.2831 -3.23357 -5.67981
upperneck 37.0047 -1.5618 -2.36017
head 16.9319 -1.69979 -0.342163
rclavicle 7.95139e-015 -2.70347e-014
rhumerus 84.0197 -1.3989 -10.8924
rradius 33.148
rwrist -42.4561
rhand -31.4798 -7.38925
rfingers 7.12502
rthumb -4.74648 -37.3161
lclavicle 7.95139e-015 -2.70347e-014
lhumerus 88.3442 -8.14987 68.0125
lradius 18.5956
lwrist 15.742
lhand -39.6339 -9.57816
lfingers 7.12502
lthumb -12.6148 20.0209
rfemur -48.7734 9.25966 6.83244
rtibia 32.7896
rfoot 22.9152 1.67305
rtoes 4.64859
lfemur -46.1559 -9.41309 -13.6056
ltibia 37.9234
lfoot 2.13133 17.7983
ltoes 1.37463
491
root 1.56505 13.5265 10.2104 98.3071 -1.80617 -1.42318
lowerback -23.306 0.669718 -7.37515
upperback -7.12081 2.34925 5.35337
thorax 4.53259 1.30078 10.8452
lowerneck -20.364 -3.28477 -5.63198
upperneck 36.9924 -1.63931 -2.38892
head 16.9453 -1.72804 -0.380058
rclavicle 1.27222e-014 1.78906e-014
rhumerus 83.89 -1.76947 -10.319
rradius 33.25
rwrist -42.4939
rhand -31.6047 -7.31792
rfingers 7.12502
rthumb -4.86701 -37.242
lclavicle 1.27222e-014 1.78906e-014
lhumerus 88.5013 -8.13234 68.3558
lradius 18.4599
lwrist 15.0449
lhand -39.812 -9.96338
lfingers 7.12502
lthumb -12.7866 19.625
rfemur -49.2368 9.31415 6.93115
rtibia 33.0957
rfoot 22.6855 2.02194
rtoes 4.2023
lfemur -46.6119 -9.12817 -13.8317
ltibia 38.0905
lfoot 2.58235 16.7241
ltoes -0.182387
492
root 1.55785 13.5043 10.1812 98.041 -1.84026 -1.49848
lowerback -23.2262 0.717181 -7.47602
upperback -7.103 2.43129 5.38666
thorax 4.48476 1.34593 10.9607
lowerneck -20.4454 -3.34072 -5.58439
upperneck 36.9673 -1.7227 -2.42124
head 16.9521 -1.759 -0.420471
rclavicle -1.27222e-014 3.18055e-015
rhumerus 83.7647 -2.16 -9.7409
rradius 33.3226
rwrist -42.3874
rhand -31.6573 -7.26323
rfingers 7.12502
rthumb -4.91786 -37.1862
lclavicle -1.27222e-014 3.18055e-015
lhumerus 88.6668 -8.09431 68.5897
lradius 18.3528
lwrist 14.4341
lhand -40.0133 -10.2506
lfingers 7.12502
lthumb -12.9806 19.3256
rfemur -49.7262 9.35903 7.0171
rtibia 33.4058
rfoot 22.4624 2.33408
rtoes 3.84382
lfemur -47.0747 -8.8327 -14.0858
ltibia 38.2622
lfoot 2.92423 15.6404
ltoes -1.86005
493
root 1.55077 13.4812 10.1511 97.7636 -1.88541 -1.56768
lowerback -23.1356 0.759465 -7.5777
upperback -7.07996 2.50563 5.4172
thorax 4.43875 1.38673 11.0709
lowerneck -20.5105 -3.39326 -5.53488
upperneck 36.8995 -1.79866 -2.46796
head 16.9319 -1.78835 -0.46494
rclavicle 3.18055e-015 -1.27222e-014
rhumerus 83.6807 -2.5187 -9.2742
rradius 33.3403
rwrist -42.0784
rhand -31.6894 -7.19234
rfingers 7.12502
rthumb -4.9488 -37.1146
lclavicle 3.18055e-015 -1.27222e-014
lhumerus 88.8347 -8.02639 68.7862
lradius 18.254
lwrist 13.9012
lhand -40.1624 -10.5593
lfingers 7.12502
lthumb -13.1243 19.0077
rfemur -50.2239 9.38773 7.10317
rtibia 33.7164
rfoot 22.2327 2.56807
rtoes 3.6057
lfemur -47.5313 -8.55741 -14.3514
ltibia 38.4335
lfoot 3.14711 14.5917
ltoes -3.65159
494
root 1.54386 13.4568 10.1208 97.4811 -1.94885 -1.63817
lowerback -23.0439 0.797073 -7.68357
upperback -7.05371 2.57453 5.44141
thorax 4.39683 1.42426 11.1748
lowerneck -20.5351 -3.45858 -5.52886
upperneck 36.7838 -1.89984 -2.4664
head 16.8782 -1.82649 -0.483516
rclavicle -1.90833e-014 1.94809e-014
rhumerus 83.6338 -2.83632 -8.91731
rradius 33.3063
rwrist -41.5907
rhand -31.7143 -7.08576
rfingers 7.12502
rthumb -4.97291 -37.0074
lclavicle -1.90833e-014 1.94809e-014
lhumerus 88.9937 -7.94368 68.9873
lradius 18.1522
lwrist 13.3775
lhand -40.2973 -10.9376
lfingers 7.12502
lthumb -13.2543 18.621
rfemur -50.7299 9.39543 7.18809
rtibia 34.022
rfoot 22.0018 2.70742
rtoes 3.48282
lfemur -47.9853 -8.32108 -14.6208
ltibia 38.602
lfoot 3.26712 13.6235
ltoes -5.42622
495
root 1.53702 13.4315 10.0907 97.1723 -2.02311 -1.70367
lowerback -22.9256 0.827698 -7.77756
upperback -7.02037 2.62907 5.4617
thorax 4.35342 1.45389 11.2616
lowerneck -20.5274 -3.51594 -5.53622
upperneck 36.6036 -1.98995 -2.46043
head 16.7833 -1.861 -0.493479
rclavicle 3.18055e-014 -1.43125e-014
rhumerus 83.6429 -3.08848 -8.70739
rradius 33.2148
rwrist -40.9202
rhand -31.7662 -6.89889
rfingers 7.12502
rthumb -5.02303 -36.8194
lclavicle 3.18055e-014 -1.43125e-014
lhumerus 89.1377 -7.83842 69.25
lradius 18.0237
lwrist 12.7865
lhand -40.3966 -11.4223
lfingers 7.12502
lthumb -13.35 18.1301
rfemur -51.2091 9.38713 7.28424
rtibia 34.3149
rfoot 21.7507 2.75378
rtoes 3.43313
lfemur -48.4138 -8.13667 -14.8833
ltibia 38.7677
lfoot 3.34404 12.7448
ltoes -7.05076
496
root 1.53023 13.4053 10.0612 96.8382 -2.09898 -1.76163
lowerback -22.784 0.858454 -7.86996
upperback -6.98412 2.68175 5.47993
thorax 4.30181 1.48288 11.3429
lowerneck -20.5125 -3.57187 -5.54931
upperneck 36.4198 -2.07958 -2.44581
head 16.6855 -1.89496 -0.498236
rclavicle 1.59028e-015 2.06736e-014
rhumerus 83.6328 -3.34581 -8.45034
rradius 33.1304
rwrist -40.3064
rhand -31.8454 -6.68622
rfingers 7.12502
rthumb -5.09945 -36.6049
lclavicle 1.59028e-015 2.06736e-014
lhumerus 89.2718 -7.74924 69.6036
lradius 17.8551
lwrist 12.0731
lhand -40.4699 -11.9928
lfingers 7.12502
lthumb -13.4208 17.5549
rfemur -51.6559 9.36997 7.39701
rtibia 34.5909
rfoot 21.4865 2.70779
rtoes 3.41362
lfemur -48.8202 -7.9991 -15.13
ltibia 38.933
lfoot 3.41836 11.9445
ltoes -8.32093
497
root 1.5234 13.3789 10.0324 96.4765 -2.17677 -1.81294
lowerback -22.6111 0.890055 -7.95624
upperback -6.94196 2.73199 5.49331
thorax 4.24194 1.51068 11.4119
lowerneck -20.4957 -3.61913 -5.56039
upperneck 36.2137 -2.1585 -2.4293
head 16.5763 -1.92408 -0.499827
rclavicle -8.5875e-014 -8.74653e-015
rhumerus 83.611 -3.6113 -8.16604
rradius 33.0451
rwrist -39.7119
rhand -31.9059 -6.45951
rfingers 7.12502
rthumb -5.15791 -36.3767
lclavicle -8.5875e-014 -8.74653e-015
lhumerus 89.3941 -7.67604 69.9871
lradius 17.6486
lwrist 11.1732
lhand -40.6097 -12.5237
lfingers 7.12502
lthumb -13.5555 17.015
rfemur -52.0652 9.35007 7.5231
rtibia 34.8508
rfoot 21.2101 2.57675
rtoes 3.3597
lfemur -49.2057 -7.89585 -15.3672
ltibia 39.0999
lfoot 3.53676 11.2074
ltoes -9.04257
498
root 1.51643 13.3524 10.0043 96.0906 -2.25008 -1.85797
lowerback -22.4064 0.923057 -8.03332
upperback -6.89507 2.77961 5.50519
thorax 4.17216 1.53739 11.4706
lowerneck -20.4773 -3.65205 -5.5555
upperneck 35.9693 -2.21552 -2.43344
head 16.4469 -1.94497 -0.507997
rclavicle 6.36111e-015 2.10712e-014
rhumerus 83.5751 -3.88623 -7.83376
rradius 32.9606
rwrist -39.1494
rhand -31.9136 -6.22868
rfingers 7.12502
rthumb -5.1653 -36.1457
lclavicle 6.36111e-015 2.10712e-014
lhumerus 89.5101 -7.61526 70.4738
lradius 17.3883
lwrist 10.0922
lhand -40.7232 -13.0433
lfingers 7.12502
lthumb -13.6649 16.4881
rfemur -52.4437 9.335 7.6639
rtibia 35.1025
rfoot 20.9487 2.34529
rtoes 3.28913
lfemur -49.5759 -7.7976 -15.6027
ltibia 39.2696
lfoot 3.70226 10.5172
ltoes -9.22201
499
root 1.50923 13.3262 9.97625 95.6853 -2.31818 -1.90168
lowerback -22.1709 0.958057 -8.09494
upperback -6.84434 2.82408 5.514
thorax 4.09261 1.56271 11.5131
lowerneck -20.4536 -3.66898 -5.53731
upperneck 35.6709 -2.25062 -2.45144
head 16.289 -1.95691 -0.51883
rclavicle -3.49861e-014 2.38542e-014
rhumerus 83.5254 -4.16701 -7.43368
rradius 32.8759
rwrist -38.6199
rhand -31.8716 -5.95715
rfingers 7.12502
rthumb -5.12478 -35.8752
lclavicle -3.49861e-014 2.38542e-014
lhumerus 89.6171 -7.55079 71.0105
lradius 17.0906
lwrist 8.865
lhand -40.8175 -13.5026
lfingers 7.12502
lthumb -13.7557 16.0227
rfemur -52.802 9.32292 7.82264
rtibia 35.3539
rfoot 20.718 2.01915
rtoes 3.21583
lfemur -49.9364 -7.68186 -15.8454
ltibia 39.4447
lfoot 3.90066 9.87602
ltoes -8.90276
500
root 1.50174 13.3003 9.9479 95.2631 -2.39472 -1.95487
lowerback -21.9065 0.996477 -8.15314
upperback -6.78652 2.87045 5.51529
thorax 4.00604 1.5889 11.5432
lowerneck -20.4192 -3.67192 -5.50097
upperneck 35.293 -2.26834 -2.48724
head 16.0895 -1.96134 -0.535034
rclavicle -6.83819e-014 -7.99114e-014
rhumerus 83.4662 -4.45085 -6.99747
rradius 32.7894
rwrist -38.0849
rhand -31.7513 -5.70465
rfingers 7.12502
rthumb -5.00859 -35.6255
lclavicle -6.83819e-014 -7.99114e-014
lhumerus 89.7093 -7.47305 71.4649
lradius 16.7929
lwrist 7.531
lhand -40.9915 -13.7701
lfingers 7.12502
lthumb -13.9235 15.7438
rfemur -53.1525 9.31171 7.98843
rtibia 35.6133
rfoot 20.539 1.6289
rtoes 3.19324
lfemur -50.2873 -7.53148 -16.1157
ltibia 39.626
lfoot 4.09017 9.32062
ltoes -8.39843
501
root 1.49395 13.2749 9.91882 94.8334 -2.46198 -2.01908
lowerback -21.6194 1.04254 -8.19655
upperback -6.7283 2.9222 5.51511
thorax 3.90762 1.61847 11.5617
lowerneck -20.3647 -3.66988 -5.45457
upperneck 34.8383 -2.2826 -2.53263
head 15.8496 -1.96369 -0.554133
rclavicle -1.59028e-014 -4.49253e-014
rhumerus 83.391 -4.73042 -6.54538
rradius 32.6982
rwrist -37.5098
rhand -31.5566 -5.45739
rfingers 7.12502
rthumb -4.82062 -35.3826
lclavicle -1.59028e-014 -4.49253e-014
lhumerus 89.7857 -7.38451 71.8744
lradius 16.5011
lwrist 6.15503
lhand -41.1837 -13.9514
lfingers 7.12502
lthumb -14.1087 15.5496
rfemur -53.5083 9.30503 8.17647
rtibia 35.8807
rfoot 20.4118 1.21192
rtoes 3.26655
lfemur -50.6429 -7.34675 -16.3875
ltibia 39.8179
lfoot 4.25224 8.86663
ltoes -7.80358
